{
	"asset":{
		"generator":"Khronos glTF Blender I/O v4.2.57",
		"version":"2.0"
	},
	"scene":0,
	"scenes":[
		{
			"name":"Scene",
			"nodes":[
				17
			]
		}
	],
	"nodes":[
		{
			"name":"Head",
			"rotation":[
				0.11933611333370209,
				-1.2296089835217572e-07,
				-2.952216959783982e-08,
				0.9928539395332336
			],
			"scale":[
				1,
				0.9999998807907104,
				0.9999999403953552
			],
			"translation":[
				3.5365184088489987e-15,
				0.3023282289505005,
				-1.5273690223693848e-07
			]
		},
		{
			"children":[
				0
			],
			"name":"Neck",
			"rotation":[
				-2.5330219699526424e-08,
				0.9882557988166809,
				0.15280874073505402,
				3.102297227997042e-07
			],
			"scale":[
				1,
				1.0000001192092896,
				1.0000001192092896
			],
			"translation":[
				-4.662123551796293e-15,
				1.2951608896255493,
				-3.632158041000366e-08
			]
		},
		{
			"name":"Hand.L",
			"rotation":[
				-0.09493237733840942,
				-0.02075505442917347,
				0.0596918947994709,
				0.9934756755828857
			],
			"scale":[
				1.0000001192092896,
				1.0000001192092896,
				1.0000001192092896
			],
			"translation":[
				-2.980232238769531e-07,
				1.0832821130752563,
				-1.440935619712036e-07
			]
		},
		{
			"children":[
				2
			],
			"name":"Lower_Arm.L",
			"rotation":[
				0.1305406242609024,
				-0.692881166934967,
				-0.1666582226753235,
				0.6892748475074768
			],
			"scale":[
				1,
				1.000000238418579,
				1.0000001192092896
			],
			"translation":[
				3.0007851137270336e-07,
				1.4807441234588623,
				2.2351741790771484e-08
			]
		},
		{
			"children":[
				3
			],
			"name":"Upper_Arm.L",
			"rotation":[
				-0.004112818744033575,
				0.09395886212587357,
				-0.9470003247261047,
				0.3071568012237549
			],
			"scale":[
				0.9999996423721313,
				0.9999999403953552,
				0.9999999403953552
			],
			"translation":[
				0.9250666499137878,
				0.7715872526168823,
				-0.15571558475494385
			]
		},
		{
			"name":"Hand.R",
			"rotation":[
				0.07497226446866989,
				-0.0915454849600792,
				0.08339303731918335,
				0.9894666075706482
			],
			"scale":[
				1,
				1,
				0.9999999403953552
			],
			"translation":[
				-2.2351741790771484e-07,
				1.0832818746566772,
				1.0067597031593323e-06
			]
		},
		{
			"children":[
				5
			],
			"name":"Lower_Arm.R",
			"rotation":[
				0.18049226701259613,
				-0.4745854437351227,
				-0.11062709987163544,
				0.8543728590011597
			],
			"scale":[
				0.9999999403953552,
				0.9999999403953552,
				0.9999999403953552
			],
			"translation":[
				7.227063179016113e-07,
				1.480744481086731,
				-3.5762786865234375e-07
			]
		},
		{
			"children":[
				6
			],
			"name":"Upper_Arm.R",
			"rotation":[
				0.07212162017822266,
				-0.11837635934352875,
				0.9442590475082397,
				0.29859745502471924
			],
			"scale":[
				0.9999993443489075,
				0.9999998807907104,
				0.9999998211860657
			],
			"translation":[
				-0.9250666499137878,
				0.7715871930122375,
				-0.15571627020835876
			]
		},
		{
			"children":[
				1,
				4,
				7
			],
			"name":"Chest",
			"rotation":[
				-0.07503727078437805,
				2.0921467580592434e-07,
				-2.0250674026556226e-08,
				0.997180700302124
			],
			"scale":[
				1,
				0.9999999403953552,
				1
			],
			"translation":[
				2.4211501672890406e-14,
				1.4824047088623047,
				2.2351741790771484e-08
			]
		},
		{
			"name":"Foot.L",
			"rotation":[
				-0.011929928325116634,
				-0.8051487803459167,
				0.592887818813324,
				0.008784225210547447
			],
			"scale":[
				0.9999998807907104,
				1.000000238418579,
				1
			],
			"translation":[
				9.033828973770142e-08,
				1.4933342933654785,
				-1.5278828868758865e-08
			]
		},
		{
			"children":[
				9
			],
			"name":"Lower_Leg.L",
			"rotation":[
				0.02050219662487507,
				0.9948227405548096,
				-0.099527508020401,
				0.0013168038567528129
			],
			"scale":[
				0.9999999403953552,
				0.9999996423721313,
				0.9999999403953552
			],
			"translation":[
				-1.341092286111234e-07,
				1.2827743291854858,
				-1.2310920283198357e-08
			]
		},
		{
			"children":[
				10
			],
			"name":"Upper_Leg.L",
			"rotation":[
				-1.3074080698061152e-06,
				-0.07257251441478729,
				-0.9973465204238892,
				0.005763575434684753
			],
			"scale":[
				0.9999999403953552,
				0.9999999403953552,
				1.000000238418579
			],
			"translation":[
				0.5668191909790039,
				-0.0013491441495716572,
				-0.10437491536140442
			]
		},
		{
			"name":"Foot.R",
			"rotation":[
				-0.01192953996360302,
				0.8051485419273376,
				-0.5928881764411926,
				0.008784702979028225
			],
			"scale":[
				1,
				1.0000001192092896,
				1
			],
			"translation":[
				-3.637978807091713e-08,
				1.4933342933654785,
				-2.765920825709145e-09
			]
		},
		{
			"children":[
				12
			],
			"name":"Lower_Leg.R",
			"rotation":[
				0.020419113337993622,
				-0.9948235154151917,
				0.09954458475112915,
				0.0004878442268818617
			],
			"scale":[
				1,
				1.000000238418579,
				1
			],
			"translation":[
				-1.1979795999650378e-07,
				1.2827740907669067,
				1.7898855730891228e-08
			]
		},
		{
			"children":[
				13
			],
			"name":"Upper_Leg.R",
			"rotation":[
				-0.0008330027339980006,
				0.07257721573114395,
				0.9973461627960205,
				0.0057030608877539635
			],
			"scale":[
				1,
				0.9999999403953552,
				0.9999991059303284
			],
			"translation":[
				-0.5668193101882935,
				-0.001348903402686119,
				-0.10437498241662979
			]
		},
		{
			"children":[
				8,
				11,
				14
			],
			"name":"Torso",
			"rotation":[
				0.032349713146686554,
				3.0018533436759753e-08,
				9.715993565251324e-10,
				0.9994766712188721
			],
			"scale":[
				1,
				0.9999999403953552,
				0.9999999403953552
			],
			"translation":[
				0,
				3.210999011993408,
				0
			]
		},
		{
			"mesh":0,
			"name":"Cube",
			"skin":0
		},
		{
			"children":[
				16,
				15
			],
			"name":"Armature"
		}
	],
	"animations":[
		{
			"channels":[
				{
					"sampler":0,
					"target":{
						"node":15,
						"path":"translation"
					}
				},
				{
					"sampler":1,
					"target":{
						"node":15,
						"path":"rotation"
					}
				},
				{
					"sampler":2,
					"target":{
						"node":15,
						"path":"scale"
					}
				},
				{
					"sampler":3,
					"target":{
						"node":8,
						"path":"translation"
					}
				},
				{
					"sampler":4,
					"target":{
						"node":8,
						"path":"rotation"
					}
				},
				{
					"sampler":5,
					"target":{
						"node":8,
						"path":"scale"
					}
				},
				{
					"sampler":6,
					"target":{
						"node":1,
						"path":"translation"
					}
				},
				{
					"sampler":7,
					"target":{
						"node":1,
						"path":"rotation"
					}
				},
				{
					"sampler":8,
					"target":{
						"node":1,
						"path":"scale"
					}
				},
				{
					"sampler":9,
					"target":{
						"node":0,
						"path":"translation"
					}
				},
				{
					"sampler":10,
					"target":{
						"node":0,
						"path":"rotation"
					}
				},
				{
					"sampler":11,
					"target":{
						"node":0,
						"path":"scale"
					}
				},
				{
					"sampler":12,
					"target":{
						"node":4,
						"path":"translation"
					}
				},
				{
					"sampler":13,
					"target":{
						"node":4,
						"path":"rotation"
					}
				},
				{
					"sampler":14,
					"target":{
						"node":4,
						"path":"scale"
					}
				},
				{
					"sampler":15,
					"target":{
						"node":3,
						"path":"translation"
					}
				},
				{
					"sampler":16,
					"target":{
						"node":3,
						"path":"rotation"
					}
				},
				{
					"sampler":17,
					"target":{
						"node":3,
						"path":"scale"
					}
				},
				{
					"sampler":18,
					"target":{
						"node":2,
						"path":"translation"
					}
				},
				{
					"sampler":19,
					"target":{
						"node":2,
						"path":"rotation"
					}
				},
				{
					"sampler":20,
					"target":{
						"node":2,
						"path":"scale"
					}
				},
				{
					"sampler":21,
					"target":{
						"node":7,
						"path":"translation"
					}
				},
				{
					"sampler":22,
					"target":{
						"node":7,
						"path":"rotation"
					}
				},
				{
					"sampler":23,
					"target":{
						"node":7,
						"path":"scale"
					}
				},
				{
					"sampler":24,
					"target":{
						"node":6,
						"path":"translation"
					}
				},
				{
					"sampler":25,
					"target":{
						"node":6,
						"path":"rotation"
					}
				},
				{
					"sampler":26,
					"target":{
						"node":6,
						"path":"scale"
					}
				},
				{
					"sampler":27,
					"target":{
						"node":5,
						"path":"translation"
					}
				},
				{
					"sampler":28,
					"target":{
						"node":5,
						"path":"rotation"
					}
				},
				{
					"sampler":29,
					"target":{
						"node":5,
						"path":"scale"
					}
				},
				{
					"sampler":30,
					"target":{
						"node":11,
						"path":"translation"
					}
				},
				{
					"sampler":31,
					"target":{
						"node":11,
						"path":"rotation"
					}
				},
				{
					"sampler":32,
					"target":{
						"node":11,
						"path":"scale"
					}
				},
				{
					"sampler":33,
					"target":{
						"node":10,
						"path":"translation"
					}
				},
				{
					"sampler":34,
					"target":{
						"node":10,
						"path":"rotation"
					}
				},
				{
					"sampler":35,
					"target":{
						"node":10,
						"path":"scale"
					}
				},
				{
					"sampler":36,
					"target":{
						"node":9,
						"path":"translation"
					}
				},
				{
					"sampler":37,
					"target":{
						"node":9,
						"path":"rotation"
					}
				},
				{
					"sampler":38,
					"target":{
						"node":9,
						"path":"scale"
					}
				},
				{
					"sampler":39,
					"target":{
						"node":14,
						"path":"translation"
					}
				},
				{
					"sampler":40,
					"target":{
						"node":14,
						"path":"rotation"
					}
				},
				{
					"sampler":41,
					"target":{
						"node":14,
						"path":"scale"
					}
				},
				{
					"sampler":42,
					"target":{
						"node":13,
						"path":"translation"
					}
				},
				{
					"sampler":43,
					"target":{
						"node":13,
						"path":"rotation"
					}
				},
				{
					"sampler":44,
					"target":{
						"node":13,
						"path":"scale"
					}
				},
				{
					"sampler":45,
					"target":{
						"node":12,
						"path":"translation"
					}
				},
				{
					"sampler":46,
					"target":{
						"node":12,
						"path":"rotation"
					}
				},
				{
					"sampler":47,
					"target":{
						"node":12,
						"path":"scale"
					}
				}
			],
			"name":"ArmatureAction",
			"samplers":[
				{
					"input":8,
					"interpolation":"LINEAR",
					"output":9
				},
				{
					"input":10,
					"interpolation":"STEP",
					"output":11
				},
				{
					"input":10,
					"interpolation":"STEP",
					"output":12
				},
				{
					"input":10,
					"interpolation":"STEP",
					"output":13
				},
				{
					"input":8,
					"interpolation":"LINEAR",
					"output":14
				},
				{
					"input":10,
					"interpolation":"STEP",
					"output":15
				},
				{
					"input":10,
					"interpolation":"STEP",
					"output":16
				},
				{
					"input":10,
					"interpolation":"STEP",
					"output":17
				},
				{
					"input":10,
					"interpolation":"STEP",
					"output":18
				},
				{
					"input":10,
					"interpolation":"STEP",
					"output":19
				},
				{
					"input":10,
					"interpolation":"STEP",
					"output":20
				},
				{
					"input":10,
					"interpolation":"STEP",
					"output":21
				},
				{
					"input":10,
					"interpolation":"STEP",
					"output":22
				},
				{
					"input":8,
					"interpolation":"LINEAR",
					"output":23
				},
				{
					"input":10,
					"interpolation":"STEP",
					"output":24
				},
				{
					"input":10,
					"interpolation":"STEP",
					"output":25
				},
				{
					"input":8,
					"interpolation":"LINEAR",
					"output":26
				},
				{
					"input":10,
					"interpolation":"STEP",
					"output":27
				},
				{
					"input":10,
					"interpolation":"STEP",
					"output":28
				},
				{
					"input":10,
					"interpolation":"STEP",
					"output":29
				},
				{
					"input":10,
					"interpolation":"STEP",
					"output":30
				},
				{
					"input":10,
					"interpolation":"STEP",
					"output":31
				},
				{
					"input":8,
					"interpolation":"LINEAR",
					"output":32
				},
				{
					"input":10,
					"interpolation":"STEP",
					"output":33
				},
				{
					"input":10,
					"interpolation":"STEP",
					"output":34
				},
				{
					"input":8,
					"interpolation":"LINEAR",
					"output":35
				},
				{
					"input":10,
					"interpolation":"STEP",
					"output":36
				},
				{
					"input":10,
					"interpolation":"STEP",
					"output":37
				},
				{
					"input":10,
					"interpolation":"STEP",
					"output":38
				},
				{
					"input":10,
					"interpolation":"STEP",
					"output":39
				},
				{
					"input":10,
					"interpolation":"STEP",
					"output":40
				},
				{
					"input":8,
					"interpolation":"LINEAR",
					"output":41
				},
				{
					"input":10,
					"interpolation":"STEP",
					"output":42
				},
				{
					"input":10,
					"interpolation":"STEP",
					"output":43
				},
				{
					"input":8,
					"interpolation":"LINEAR",
					"output":44
				},
				{
					"input":10,
					"interpolation":"STEP",
					"output":45
				},
				{
					"input":10,
					"interpolation":"STEP",
					"output":46
				},
				{
					"input":8,
					"interpolation":"LINEAR",
					"output":47
				},
				{
					"input":10,
					"interpolation":"STEP",
					"output":48
				},
				{
					"input":10,
					"interpolation":"STEP",
					"output":49
				},
				{
					"input":8,
					"interpolation":"LINEAR",
					"output":50
				},
				{
					"input":10,
					"interpolation":"STEP",
					"output":51
				},
				{
					"input":10,
					"interpolation":"STEP",
					"output":52
				},
				{
					"input":8,
					"interpolation":"LINEAR",
					"output":53
				},
				{
					"input":10,
					"interpolation":"STEP",
					"output":54
				},
				{
					"input":10,
					"interpolation":"STEP",
					"output":55
				},
				{
					"input":8,
					"interpolation":"LINEAR",
					"output":56
				},
				{
					"input":10,
					"interpolation":"STEP",
					"output":57
				}
			]
		}
	],
	"materials":[
		{
			"doubleSided":true,
			"name":"Material.001",
			"pbrMetallicRoughness":{
				"baseColorFactor":[
					0.800000011920929,
					0.800000011920929,
					0.800000011920929,
					1
				],
				"metallicFactor":0,
				"roughnessFactor":0.5
			}
		}
	],
	"meshes":[
		{
			"name":"Cube.001",
			"primitives":[
				{
					"attributes":{
						"POSITION":0,
						"NORMAL":1,
						"TEXCOORD_0":2,
						"COLOR_0":3,
						"JOINTS_0":4,
						"WEIGHTS_0":5
					},
					"indices":6,
					"material":0
				}
			]
		}
	],
	"skins":[
		{
			"inverseBindMatrices":7,
			"joints":[
				15,
				8,
				1,
				0,
				4,
				3,
				2,
				7,
				6,
				5,
				11,
				10,
				9,
				14,
				13,
				12
			],
			"name":"Armature"
		}
	],
	"accessors":[
		{
			"bufferView":0,
			"componentType":5126,
			"count":4126,
			"max":[
				2.7054715156555176,
				8.698831558227539,
				1.7497532367706299
			],
			"min":[
				-2.7054710388183594,
				-0.020328771322965622,
				-1.7776024341583252
			],
			"type":"VEC3"
		},
		{
			"bufferView":1,
			"componentType":5126,
			"count":4126,
			"type":"VEC3"
		},
		{
			"bufferView":2,
			"componentType":5126,
			"count":4126,
			"type":"VEC2"
		},
		{
			"bufferView":3,
			"componentType":5126,
			"count":4126,
			"type":"VEC3"
		},
		{
			"bufferView":4,
			"componentType":5121,
			"count":4126,
			"type":"VEC4"
		},
		{
			"bufferView":5,
			"componentType":5126,
			"count":4126,
			"type":"VEC4"
		},
		{
			"bufferView":6,
			"componentType":5123,
			"count":4260,
			"type":"SCALAR"
		},
		{
			"bufferView":7,
			"componentType":5126,
			"count":16,
			"type":"MAT4"
		},
		{
			"bufferView":8,
			"componentType":5126,
			"count":21,
			"max":[
				0.8333333333333334
			],
			"min":[
				0
			],
			"type":"SCALAR"
		},
		{
			"bufferView":9,
			"componentType":5126,
			"count":21,
			"type":"VEC3"
		},
		{
			"bufferView":10,
			"componentType":5126,
			"count":2,
			"max":[
				0.8333333333333334
			],
			"min":[
				0
			],
			"type":"SCALAR"
		},
		{
			"bufferView":11,
			"componentType":5126,
			"count":2,
			"type":"VEC4"
		},
		{
			"bufferView":12,
			"componentType":5126,
			"count":2,
			"type":"VEC3"
		},
		{
			"bufferView":13,
			"componentType":5126,
			"count":2,
			"type":"VEC3"
		},
		{
			"bufferView":14,
			"componentType":5126,
			"count":21,
			"type":"VEC4"
		},
		{
			"bufferView":15,
			"componentType":5126,
			"count":2,
			"type":"VEC3"
		},
		{
			"bufferView":16,
			"componentType":5126,
			"count":2,
			"type":"VEC3"
		},
		{
			"bufferView":17,
			"componentType":5126,
			"count":2,
			"type":"VEC4"
		},
		{
			"bufferView":18,
			"componentType":5126,
			"count":2,
			"type":"VEC3"
		},
		{
			"bufferView":19,
			"componentType":5126,
			"count":2,
			"type":"VEC3"
		},
		{
			"bufferView":20,
			"componentType":5126,
			"count":2,
			"type":"VEC4"
		},
		{
			"bufferView":21,
			"componentType":5126,
			"count":2,
			"type":"VEC3"
		},
		{
			"bufferView":22,
			"componentType":5126,
			"count":2,
			"type":"VEC3"
		},
		{
			"bufferView":23,
			"componentType":5126,
			"count":21,
			"type":"VEC4"
		},
		{
			"bufferView":24,
			"componentType":5126,
			"count":2,
			"type":"VEC3"
		},
		{
			"bufferView":25,
			"componentType":5126,
			"count":2,
			"type":"VEC3"
		},
		{
			"bufferView":26,
			"componentType":5126,
			"count":21,
			"type":"VEC4"
		},
		{
			"bufferView":27,
			"componentType":5126,
			"count":2,
			"type":"VEC3"
		},
		{
			"bufferView":28,
			"componentType":5126,
			"count":2,
			"type":"VEC3"
		},
		{
			"bufferView":29,
			"componentType":5126,
			"count":2,
			"type":"VEC4"
		},
		{
			"bufferView":30,
			"componentType":5126,
			"count":2,
			"type":"VEC3"
		},
		{
			"bufferView":31,
			"componentType":5126,
			"count":2,
			"type":"VEC3"
		},
		{
			"bufferView":32,
			"componentType":5126,
			"count":21,
			"type":"VEC4"
		},
		{
			"bufferView":33,
			"componentType":5126,
			"count":2,
			"type":"VEC3"
		},
		{
			"bufferView":34,
			"componentType":5126,
			"count":2,
			"type":"VEC3"
		},
		{
			"bufferView":35,
			"componentType":5126,
			"count":21,
			"type":"VEC4"
		},
		{
			"bufferView":36,
			"componentType":5126,
			"count":2,
			"type":"VEC3"
		},
		{
			"bufferView":37,
			"componentType":5126,
			"count":2,
			"type":"VEC3"
		},
		{
			"bufferView":38,
			"componentType":5126,
			"count":2,
			"type":"VEC4"
		},
		{
			"bufferView":39,
			"componentType":5126,
			"count":2,
			"type":"VEC3"
		},
		{
			"bufferView":40,
			"componentType":5126,
			"count":2,
			"type":"VEC3"
		},
		{
			"bufferView":41,
			"componentType":5126,
			"count":21,
			"type":"VEC4"
		},
		{
			"bufferView":42,
			"componentType":5126,
			"count":2,
			"type":"VEC3"
		},
		{
			"bufferView":43,
			"componentType":5126,
			"count":2,
			"type":"VEC3"
		},
		{
			"bufferView":44,
			"componentType":5126,
			"count":21,
			"type":"VEC4"
		},
		{
			"bufferView":45,
			"componentType":5126,
			"count":2,
			"type":"VEC3"
		},
		{
			"bufferView":46,
			"componentType":5126,
			"count":2,
			"type":"VEC3"
		},
		{
			"bufferView":47,
			"componentType":5126,
			"count":21,
			"type":"VEC4"
		},
		{
			"bufferView":48,
			"componentType":5126,
			"count":2,
			"type":"VEC3"
		},
		{
			"bufferView":49,
			"componentType":5126,
			"count":2,
			"type":"VEC3"
		},
		{
			"bufferView":50,
			"componentType":5126,
			"count":21,
			"type":"VEC4"
		},
		{
			"bufferView":51,
			"componentType":5126,
			"count":2,
			"type":"VEC3"
		},
		{
			"bufferView":52,
			"componentType":5126,
			"count":2,
			"type":"VEC3"
		},
		{
			"bufferView":53,
			"componentType":5126,
			"count":21,
			"type":"VEC4"
		},
		{
			"bufferView":54,
			"componentType":5126,
			"count":2,
			"type":"VEC3"
		},
		{
			"bufferView":55,
			"componentType":5126,
			"count":2,
			"type":"VEC3"
		},
		{
			"bufferView":56,
			"componentType":5126,
			"count":21,
			"type":"VEC4"
		},
		{
			"bufferView":57,
			"componentType":5126,
			"count":2,
			"type":"VEC3"
		}
	],
	"bufferViews":[
		{
			"buffer":0,
			"byteLength":49512,
			"byteOffset":0,
			"target":34962
		},
		{
			"buffer":0,
			"byteLength":49512,
			"byteOffset":49512,
			"target":34962
		},
		{
			"buffer":0,
			"byteLength":33008,
			"byteOffset":99024,
			"target":34962
		},
		{
			"buffer":0,
			"byteLength":49512,
			"byteOffset":132032,
			"target":34962
		},
		{
			"buffer":0,
			"byteLength":16504,
			"byteOffset":181544,
			"target":34962
		},
		{
			"buffer":0,
			"byteLength":66016,
			"byteOffset":198048,
			"target":34962
		},
		{
			"buffer":0,
			"byteLength":8520,
			"byteOffset":264064,
			"target":34963
		},
		{
			"buffer":0,
			"byteLength":1024,
			"byteOffset":272584
		},
		{
			"buffer":0,
			"byteLength":84,
			"byteOffset":273608
		},
		{
			"buffer":0,
			"byteLength":252,
			"byteOffset":273692
		},
		{
			"buffer":0,
			"byteLength":8,
			"byteOffset":273944
		},
		{
			"buffer":0,
			"byteLength":32,
			"byteOffset":273952
		},
		{
			"buffer":0,
			"byteLength":24,
			"byteOffset":273984
		},
		{
			"buffer":0,
			"byteLength":24,
			"byteOffset":274008
		},
		{
			"buffer":0,
			"byteLength":336,
			"byteOffset":274032
		},
		{
			"buffer":0,
			"byteLength":24,
			"byteOffset":274368
		},
		{
			"buffer":0,
			"byteLength":24,
			"byteOffset":274392
		},
		{
			"buffer":0,
			"byteLength":32,
			"byteOffset":274416
		},
		{
			"buffer":0,
			"byteLength":24,
			"byteOffset":274448
		},
		{
			"buffer":0,
			"byteLength":24,
			"byteOffset":274472
		},
		{
			"buffer":0,
			"byteLength":32,
			"byteOffset":274496
		},
		{
			"buffer":0,
			"byteLength":24,
			"byteOffset":274528
		},
		{
			"buffer":0,
			"byteLength":24,
			"byteOffset":274552
		},
		{
			"buffer":0,
			"byteLength":336,
			"byteOffset":274576
		},
		{
			"buffer":0,
			"byteLength":24,
			"byteOffset":274912
		},
		{
			"buffer":0,
			"byteLength":24,
			"byteOffset":274936
		},
		{
			"buffer":0,
			"byteLength":336,
			"byteOffset":274960
		},
		{
			"buffer":0,
			"byteLength":24,
			"byteOffset":275296
		},
		{
			"buffer":0,
			"byteLength":24,
			"byteOffset":275320
		},
		{
			"buffer":0,
			"byteLength":32,
			"byteOffset":275344
		},
		{
			"buffer":0,
			"byteLength":24,
			"byteOffset":275376
		},
		{
			"buffer":0,
			"byteLength":24,
			"byteOffset":275400
		},
		{
			"buffer":0,
			"byteLength":336,
			"byteOffset":275424
		},
		{
			"buffer":0,
			"byteLength":24,
			"byteOffset":275760
		},
		{
			"buffer":0,
			"byteLength":24,
			"byteOffset":275784
		},
		{
			"buffer":0,
			"byteLength":336,
			"byteOffset":275808
		},
		{
			"buffer":0,
			"byteLength":24,
			"byteOffset":276144
		},
		{
			"buffer":0,
			"byteLength":24,
			"byteOffset":276168
		},
		{
			"buffer":0,
			"byteLength":32,
			"byteOffset":276192
		},
		{
			"buffer":0,
			"byteLength":24,
			"byteOffset":276224
		},
		{
			"buffer":0,
			"byteLength":24,
			"byteOffset":276248
		},
		{
			"buffer":0,
			"byteLength":336,
			"byteOffset":276272
		},
		{
			"buffer":0,
			"byteLength":24,
			"byteOffset":276608
		},
		{
			"buffer":0,
			"byteLength":24,
			"byteOffset":276632
		},
		{
			"buffer":0,
			"byteLength":336,
			"byteOffset":276656
		},
		{
			"buffer":0,
			"byteLength":24,
			"byteOffset":276992
		},
		{
			"buffer":0,
			"byteLength":24,
			"byteOffset":277016
		},
		{
			"buffer":0,
			"byteLength":336,
			"byteOffset":277040
		},
		{
			"buffer":0,
			"byteLength":24,
			"byteOffset":277376
		},
		{
			"buffer":0,
			"byteLength":24,
			"byteOffset":277400
		},
		{
			"buffer":0,
			"byteLength":336,
			"byteOffset":277424
		},
		{
			"buffer":0,
			"byteLength":24,
			"byteOffset":277760
		},
		{
			"buffer":0,
			"byteLength":24,
			"byteOffset":277784
		},
		{
			"buffer":0,
			"byteLength":336,
			"byteOffset":277808
		},
		{
			"buffer":0,
			"byteLength":24,
			"byteOffset":278144
		},
		{
			"buffer":0,
			"byteLength":24,
			"byteOffset":278168
		},
		{
			"buffer":0,
			"byteLength":336,
			"byteOffset":278192
		},
		{
			"buffer":0,
			"byteLength":24,
			"byteOffset":278528
		}
	],
	"buffers":[
		{
			"byteLength":278552,
			"uri":"character.bin"
		}
	]
}
